<?xml version="1.0" encoding="UTF-8" standalone="no"?>
<svg
   xmlns:dc="http://purl.org/dc/elements/1.1/"
   xmlns:cc="http://creativecommons.org/ns#"
   xmlns:rdf="http://www.w3.org/1999/02/22-rdf-syntax-ns#"
   xmlns:svg="http://www.w3.org/2000/svg"
   xmlns="http://www.w3.org/2000/svg"
   xmlns:sodipodi="http://sodipodi.sourceforge.net/DTD/sodipodi-0.dtd"
   xmlns:inkscape="http://www.inkscape.org/namespaces/inkscape"
   viewBox="0 0 32 32"
   version="1.1"
   id="svg4"
   sodipodi:docname="clock1.svg"
   inkscape:version="0.92.4 (f8dce91, 2019-08-02)"
   width="32"
   height="32">
  <metadata
     id="metadata10">
    <rdf:RDF>
      <cc:Work
         rdf:about="">
        <dc:format>image/svg+xml</dc:format>
        <dc:type
           rdf:resource="http://purl.org/dc/dcmitype/StillImage" />
        <dc:title></dc:title>
      </cc:Work>
    </rdf:RDF>
  </metadata>
  <defs
     id="defs8" />
  <sodipodi:namedview
     pagecolor="#ffffff"
     bordercolor="#666666"
     borderopacity="1"
     objecttolerance="10"
     gridtolerance="10"
     guidetolerance="10"
     inkscape:pageopacity="0"
     inkscape:pageshadow="2"
     inkscape:window-width="1240"
     inkscape:window-height="767"
     id="namedview6"
     showgrid="false"
     inkscape:zoom="10.429825"
     inkscape:cx="10.707519"
     inkscape:cy="11.280474"
     inkscape:window-x="0"
     inkscape:window-y="27"
     inkscape:window-maximized="0"
     inkscape:current-layer="svg4"
     inkscape:pagecheckerboard="false" />
  <path
     d="M 16,0 C 7.16128,0 0,7.1613 0,16 0,24.8387 7.16128,32 16,32 24.83871,32 32,24.8387 32,16 32,7.1613 24.83871,0 16,0 Z m 0,28.90321 C 8.87096,28.90321 3.09677,23.12905 3.09677,16 3.09677,8.87095 8.87096,3.09679 16,3.09679 c 7.12903,0 12.90322,5.77416 12.90322,12.90321 0,7.12905 -5.77419,12.90321 -12.90322,12.90321 z m 3.98711,-6.73547 -5.47744,-3.98063 c -0.2,-0.14841 -0.31612,-0.38067 -0.31612,-0.62581 V 6.96774 c 0,-0.42581 0.34838,-0.77418 0.77419,-0.77418 h 2.06451 c 0.42581,0 0.77419,0.34837 0.77419,0.77418 v 9.14194 l 4.30969,3.13547 c 0.34838,0.25164 0.41935,0.73552 0.16774,1.0839 L 21.07096,22 c -0.25162,0.34193 -0.73548,0.41933 -1.08385,0.16774 z"
     id="path2"
     inkscape:connector-curvature="0"
     style="display:inline;stroke-width:0.06451605;fill-rule:evenodd"
     inkscape:label="path2" />
  <path
     style="opacity:1;fill:none;fill-rule:evenodd;stroke:none;stroke-width:0.09587888"
     d="M 14.417924,28.768992 C 11.55551,28.40913 8.7875736,27.013488 6.7715616,24.913563 4.8734409,22.936437 3.7168155,20.609828 3.288186,17.906581 3.1352924,16.942322 3.1599651,14.821805 3.3358748,13.807934 4.2121029,8.7577115 7.9646918,4.7656236 13.038332,3.4862435 14.00046,3.2436311 14.210436,3.2256102 16.038385,3.2287666 c 1.889963,0.00326 2.0086,0.01486 3.086323,0.3016911 4.953555,1.318365 8.57568,5.1925568 9.526923,10.1899103 0.230161,1.209151 0.23271,3.36973 0.0054,4.542166 -0.509456,2.627223 -1.615824,4.763493 -3.440534,6.643274 -1.872975,1.929504 -4.036198,3.130215 -6.636553,3.683665 -1.01687,0.216428 -3.139985,0.308004 -4.161979,0.179519 z m 6.371538,-6.482677 c 0.210787,-0.08089 1.563803,-1.91256 1.641532,-2.222258 0.125889,-0.501581 -0.06216,-0.690794 -2.343139,-2.357655 L 17.860084,16.078423 V 11.392441 6.7064585 L 17.579822,6.4261972 17.299561,6.1459358 h -1.296393 c -1.232108,0 -1.309735,0.011472 -1.565408,0.2313527 l -0.269013,0.2313527 -0.0263,5.4959058 c -0.01863,3.892807 0.005,5.571507 0.08106,5.755091 0.07225,0.174424 0.940074,0.864727 2.653676,2.11084 1.400475,1.018411 2.718787,1.970306 2.929581,2.115323 0.381317,0.262327 0.668764,0.320979 0.982693,0.200514 z"
     id="path6489"
     inkscape:connector-curvature="0" />
  <path
     style="opacity:1;fill:none;fill-rule:evenodd;stroke:none;stroke-width:0.09587888"
     d="M 14.417924,28.768992 C 11.55551,28.40913 8.7875736,27.013488 6.7715616,24.913563 4.8734409,22.936437 3.7168155,20.609828 3.288186,17.906581 3.1352924,16.942322 3.1599651,14.821805 3.3358748,13.807934 4.2121029,8.7577115 7.9646918,4.7656236 13.038332,3.4862435 14.00046,3.2436311 14.210436,3.2256102 16.038385,3.2287666 c 1.889963,0.00326 2.0086,0.01486 3.086323,0.3016911 4.953555,1.318365 8.57568,5.1925568 9.526923,10.1899103 0.230161,1.209151 0.23271,3.36973 0.0054,4.542166 -0.509456,2.627223 -1.615824,4.763493 -3.440534,6.643274 -1.872975,1.929504 -4.036198,3.130215 -6.636553,3.683665 -1.01687,0.216428 -3.139985,0.308004 -4.161979,0.179519 z m 6.371538,-6.482677 c 0.210787,-0.08089 1.563803,-1.91256 1.641532,-2.222258 0.125889,-0.501581 -0.06216,-0.690794 -2.343139,-2.357655 L 17.860084,16.078423 V 11.392441 6.7064585 L 17.579822,6.4261972 17.299561,6.1459358 h -1.296393 c -1.232108,0 -1.309735,0.011472 -1.565408,0.2313527 l -0.269013,0.2313527 -0.0263,5.4959058 c -0.01863,3.892807 0.005,5.571507 0.08106,5.755091 0.07225,0.174424 0.940074,0.864727 2.653676,2.11084 1.400475,1.018411 2.718787,1.970306 2.929581,2.115323 0.381317,0.262327 0.668764,0.320979 0.982693,0.200514 z"
     id="path6491"
     inkscape:connector-curvature="0" />
  <path
     style="opacity:1;fill:none;fill-rule:evenodd;stroke:none;stroke-width:0.09587888"
     d="M 14.417924,28.768992 C 11.55551,28.40913 8.7875736,27.013488 6.7715616,24.913563 4.8734409,22.936437 3.7168155,20.609828 3.288186,17.906581 3.1352924,16.942322 3.1599651,14.821805 3.3358748,13.807934 4.2121029,8.7577115 7.9646918,4.7656236 13.038332,3.4862435 14.00046,3.2436311 14.210436,3.2256102 16.038385,3.2287666 c 1.889963,0.00326 2.0086,0.01486 3.086323,0.3016911 4.953555,1.318365 8.57568,5.1925568 9.526923,10.1899103 0.230161,1.209151 0.23271,3.36973 0.0054,4.542166 -0.509456,2.627223 -1.615824,4.763493 -3.440534,6.643274 -1.872975,1.929504 -4.036198,3.130215 -6.636553,3.683665 -1.01687,0.216428 -3.139985,0.308004 -4.161979,0.179519 z m 6.371538,-6.482677 c 0.210787,-0.08089 1.563803,-1.91256 1.641532,-2.222258 0.125889,-0.501581 -0.06216,-0.690794 -2.343139,-2.357655 L 17.860084,16.078423 V 11.392441 6.7064585 L 17.579822,6.4261972 17.299561,6.1459358 h -1.296393 c -1.232108,0 -1.309735,0.011472 -1.565408,0.2313527 l -0.269013,0.2313527 -0.0263,5.4959058 c -0.01863,3.892807 0.005,5.571507 0.08106,5.755091 0.07225,0.174424 0.940074,0.864727 2.653676,2.11084 1.400475,1.018411 2.718787,1.970306 2.929581,2.115323 0.381317,0.262327 0.668764,0.320979 0.982693,0.200514 z"
     id="path6493"
     inkscape:connector-curvature="0" />
  <path
     style="opacity:1;fill:none;fill-rule:evenodd;stroke:none;stroke-width:0.09587888"
     d="M 14.312565,31.876882 C 8.7475571,31.178885 4.1150306,27.927898 1.6927459,23.02062 0.42194261,20.446114 -0.13963409,17.521009 0.1065338,14.758458 0.46094284,10.781201 1.9646062,7.5505558 4.7656877,4.7481888 7.5708625,1.9417267 10.850883,0.42578147 14.814361,0.10393737 22.405269,-0.51246275 29.495987,4.555337 31.432632,11.981163 c 1.729163,6.630267 -1.009383,13.653519 -6.788229,17.409033 -1.67071,1.08575 -3.602396,1.866412 -5.60506,2.265202 -1.008055,0.200734 -3.83581,0.333235 -4.726778,0.221484 z m 4.183468,-3.188005 c 5.242048,-1.016171 9.317699,-5.173814 10.25588,-10.462202 0.215446,-1.214444 0.215445,-3.315338 -3e-6,-4.458368 C 28.403305,11.918829 27.699417,10.196631 26.665278,8.6629606 25.99246,7.6651416 24.556256,6.2020965 23.535357,5.4745426 19.895884,2.8808351 15.070731,2.3438248 10.964747,4.0755098 6.9004544,5.7896118 3.9501677,9.5375517 3.2336275,13.896851 c -0.2393354,1.456073 -0.1537476,3.820525 0.1873149,5.174772 1.2128224,4.815717 4.9634892,8.490033 9.7515056,9.552997 1.705597,0.37865 3.584736,0.401332 5.323585,0.06426 z"
     id="path6495"
     inkscape:connector-curvature="0" />
  <path
     style="opacity:1;fill:none;fill-rule:evenodd;stroke:none;stroke-width:0.09587888"
     d="M 14.417924,28.768992 C 11.55551,28.40913 8.7875736,27.013488 6.7715616,24.913563 4.8734409,22.936437 3.7168155,20.609828 3.288186,17.906581 3.1352924,16.942322 3.1599651,14.821805 3.3358748,13.807934 4.2121029,8.7577115 7.9646918,4.7656236 13.038332,3.4862435 14.00046,3.2436311 14.210436,3.2256102 16.038385,3.2287666 c 1.889963,0.00326 2.0086,0.01486 3.086323,0.3016911 4.953555,1.318365 8.57568,5.1925568 9.526923,10.1899103 0.230161,1.209151 0.23271,3.36973 0.0054,4.542166 -0.509456,2.627223 -1.615824,4.763493 -3.440534,6.643274 -1.872975,1.929504 -4.036198,3.130215 -6.636553,3.683665 -1.01687,0.216428 -3.139985,0.308004 -4.161979,0.179519 z m 6.371538,-6.482677 c 0.210787,-0.08089 1.563803,-1.91256 1.641532,-2.222258 0.125889,-0.501581 -0.06216,-0.690794 -2.343139,-2.357655 L 17.860084,16.078423 V 11.392441 6.7064585 L 17.579822,6.4261972 17.299561,6.1459358 h -1.296393 c -1.232108,0 -1.309735,0.011472 -1.565408,0.2313527 l -0.269013,0.2313527 -0.0263,5.4959058 c -0.01863,3.892807 0.005,5.571507 0.08106,5.755091 0.07225,0.174424 0.940074,0.864727 2.653676,2.11084 1.400475,1.018411 2.718787,1.970306 2.929581,2.115323 0.381317,0.262327 0.668764,0.320979 0.982693,0.200514 z"
     id="path6497"
     inkscape:connector-curvature="0" />
  <path
     style="opacity:1;fill:none;fill-rule:evenodd;stroke:none;stroke-width:0.09587888"
     d="M 14.312565,31.876882 C 8.7475571,31.178885 4.1150306,27.927898 1.6927459,23.02062 0.42194261,20.446114 -0.13963409,17.521009 0.1065338,14.758458 0.46094284,10.781201 1.9646062,7.5505558 4.7656877,4.7481888 7.5708625,1.9417267 10.850883,0.42578147 14.814361,0.10393737 22.405269,-0.51246275 29.495987,4.555337 31.432632,11.981163 c 1.729163,6.630267 -1.009383,13.653519 -6.788229,17.409033 -1.67071,1.08575 -3.602396,1.866412 -5.60506,2.265202 -1.008055,0.200734 -3.83581,0.333235 -4.726778,0.221484 z m 4.183468,-3.188005 c 5.242048,-1.016171 9.317699,-5.173814 10.25588,-10.462202 0.215446,-1.214444 0.215445,-3.315338 -3e-6,-4.458368 C 28.403305,11.918829 27.699417,10.196631 26.665278,8.6629606 25.99246,7.6651416 24.556256,6.2020965 23.535357,5.4745426 19.895884,2.8808351 15.070731,2.3438248 10.964747,4.0755098 6.9004544,5.7896118 3.9501677,9.5375517 3.2336275,13.896851 c -0.2393354,1.456073 -0.1537476,3.820525 0.1873149,5.174772 1.2128224,4.815717 4.9634892,8.490033 9.7515056,9.552997 1.705597,0.37865 3.584736,0.401332 5.323585,0.06426 z"
     id="path6499"
     inkscape:connector-curvature="0" />
  <path
     style="opacity:1;fill:none;fill-rule:evenodd;stroke:none;stroke-width:0.09587888"
     d="M 14.417924,28.768992 C 11.55551,28.40913 8.7875736,27.013488 6.7715616,24.913563 4.8734409,22.936437 3.7168155,20.609828 3.288186,17.906581 3.1352924,16.942322 3.1599651,14.821805 3.3358748,13.807934 4.2121029,8.7577115 7.9646918,4.7656236 13.038332,3.4862435 14.00046,3.2436311 14.210436,3.2256102 16.038385,3.2287666 c 1.889963,0.00326 2.0086,0.01486 3.086323,0.3016911 4.953555,1.318365 8.57568,5.1925568 9.526923,10.1899103 0.230161,1.209151 0.23271,3.36973 0.0054,4.542166 -0.509456,2.627223 -1.615824,4.763493 -3.440534,6.643274 -1.872975,1.929504 -4.036198,3.130215 -6.636553,3.683665 -1.01687,0.216428 -3.139985,0.308004 -4.161979,0.179519 z m 6.371538,-6.482677 c 0.210787,-0.08089 1.563803,-1.91256 1.641532,-2.222258 0.125889,-0.501581 -0.06216,-0.690794 -2.343139,-2.357655 L 17.860084,16.078423 V 11.392441 6.7064585 L 17.579822,6.4261972 17.299561,6.1459358 h -1.296393 c -1.232108,0 -1.309735,0.011472 -1.565408,0.2313527 l -0.269013,0.2313527 -0.0263,5.4959058 c -0.01863,3.892807 0.005,5.571507 0.08106,5.755091 0.07225,0.174424 0.940074,0.864727 2.653676,2.11084 1.400475,1.018411 2.718787,1.970306 2.929581,2.115323 0.381317,0.262327 0.668764,0.320979 0.982693,0.200514 z"
     id="path6501"
     inkscape:connector-curvature="0" />
  <path
     style="opacity:1;fill:none;fill-rule:evenodd;stroke:none;stroke-width:0.09587888"
     d="M 14.312565,31.876882 C 8.7475571,31.178885 4.1150306,27.927898 1.6927459,23.02062 0.42194261,20.446114 -0.13963409,17.521009 0.1065338,14.758458 0.46094284,10.781201 1.9646062,7.5505558 4.7656877,4.7481888 7.5708625,1.9417267 10.850883,0.42578147 14.814361,0.10393737 22.405269,-0.51246275 29.495987,4.555337 31.432632,11.981163 c 1.729163,6.630267 -1.009383,13.653519 -6.788229,17.409033 -1.67071,1.08575 -3.602396,1.866412 -5.60506,2.265202 -1.008055,0.200734 -3.83581,0.333235 -4.726778,0.221484 z m 4.183468,-3.188005 c 5.242048,-1.016171 9.317699,-5.173814 10.25588,-10.462202 0.215446,-1.214444 0.215445,-3.315338 -3e-6,-4.458368 C 28.403305,11.918829 27.699417,10.196631 26.665278,8.6629606 25.99246,7.6651416 24.556256,6.2020965 23.535357,5.4745426 19.895884,2.8808351 15.070731,2.3438248 10.964747,4.0755098 6.9004544,5.7896118 3.9501677,9.5375517 3.2336275,13.896851 c -0.2393354,1.456073 -0.1537476,3.820525 0.1873149,5.174772 1.2128224,4.815717 4.9634892,8.490033 9.7515056,9.552997 1.705597,0.37865 3.584736,0.401332 5.323585,0.06426 z"
     id="path6503"
     inkscape:connector-curvature="0" />
</svg>
